<svg width="111" height="61" viewBox="0 0 111 61" fill="none" xmlns="http://www.w3.org/2000/svg">
<path fill-rule="evenodd" clip-rule="evenodd" d="M22.485 23.7187L20.292 33.3133L27.1452 47.0197L105.272 61.0003L110.755 27.8307L33.4502 13.8501L22.485 23.7187ZM26.8713 31.5315C28.3096 31.5315 29.4755 30.3655 29.4755 28.9272C29.4755 27.4889 28.3096 26.323 26.8713 26.323C25.433 26.323 24.2671 27.4889 24.2671 28.9272C24.2671 30.3655 25.433 31.5315 26.8713 31.5315Z" fill="white"/>
<path d="M10.0624 1.43754C6.25017 1.06262 -0.816097 5.49005 2.19935 13.7135C5.2148 21.9369 11.4923 28.5166 24.5408 28.5166" stroke="black" stroke-linecap="round"/>
<path d="M75.4134 28.8636L83.2267 40.6492L71.4455 48.466M51.3842 34.2063L83.2262 40.6517" stroke="#F72C25" stroke-width="2" stroke-linecap="round" stroke-linejoin="round"/>
</svg>
