<svg width="24" height="24" viewBox="0 0 24 24" fill="none" xmlns="http://www.w3.org/2000/svg">
<path d="M16.5715 21.1429V16M16.5715 10.2857V2.85718V10.2857Z" stroke="#282623" stroke-linecap="round" stroke-linejoin="round"/>
<path d="M16.5715 15.9999C18.1495 15.9999 19.4286 14.7207 19.4286 13.1428C19.4286 11.5648 18.1495 10.2856 16.5715 10.2856C14.9935 10.2856 13.7144 11.5648 13.7144 13.1428C13.7144 14.7207 14.9935 15.9999 16.5715 15.9999Z" stroke="#282623" stroke-linecap="round" stroke-linejoin="round"/>
<path d="M7.42871 21.1429V11.4286M7.42871 5.71432V2.85718V5.71432Z" stroke="#282623" stroke-linecap="round" stroke-linejoin="round"/>
<path d="M7.42868 11.4286C9.00663 11.4286 10.2858 10.1495 10.2858 8.5715C10.2858 6.99354 9.00663 5.71436 7.42868 5.71436C5.85072 5.71436 4.57153 6.99354 4.57153 8.5715C4.57153 10.1495 5.85072 11.4286 7.42868 11.4286Z" stroke="#282623" stroke-linecap="round" stroke-linejoin="round"/>
</svg>
